<?xml version="1.0" standalone="no"?>
<!DOCTYPE svg PUBLIC "-//W3C//DTD SVG 20010904//EN"
 "http://www.w3.org/TR/2001/REC-SVG-20010904/DTD/svg10.dtd">
<svg version="1.0" xmlns="http://www.w3.org/2000/svg"
 width="686.000000pt" height="686.000000pt" viewBox="0 0 686.000000 686.000000"
 preserveAspectRatio="xMidYMid meet">
<metadata>
Created by potrace 1.11, written by Peter Selinger 2001-2013
</metadata>
<g transform="translate(0.000000,686.000000) scale(0.100000,-0.100000)"
fill="#000000" stroke="none">
<path d="M3334 6835 c-27 -13 -146 -86 -264 -161 -118 -75 -227 -144 -242
-153 -70 -42 -272 -170 -320 -202 -15 -11 -32 -19 -38 -19 -5 0 -10 -4 -10
-10 0 -5 -4 -10 -9 -10 -4 0 -49 -26 -100 -57 -50 -32 -109 -69 -131 -83 -132
-83 -507 -318 -765 -481 -165 -103 -325 -204 -355 -222 -98 -61 -544 -342
-581 -367 -19 -13 -46 -40 -60 -59 l-24 -36 -2 -1530 c-2 -1469 -2 -1532 16
-1570 25 -54 43 -69 211 -174 80 -50 150 -95 157 -101 7 -5 14 -10 17 -10 2 0
73 -44 158 -97 85 -54 163 -103 174 -110 10 -6 64 -40 119 -75 55 -35 108 -67
118 -73 9 -5 185 -115 390 -244 204 -129 489 -308 632 -398 143 -90 267 -167
275 -173 14 -9 116 -73 156 -97 10 -6 124 -78 253 -159 128 -81 251 -151 272
-157 92 -23 79 -30 1054 585 61 38 119 75 130 81 11 7 45 29 77 50 31 20 62
37 67 37 6 0 11 5 11 10 0 6 4 10 9 10 5 0 43 21 83 47 41 27 83 53 93 60 11
6 190 119 399 250 208 131 400 252 427 268 261 160 610 383 633 404 16 14 37
44 47 66 18 38 19 100 19 1555 -1 1446 -1 1517 -19 1555 -10 23 -32 53 -49 67
-17 14 -152 102 -299 194 -148 91 -290 181 -318 199 -27 17 -124 78 -215 135
-91 57 -194 122 -230 145 -36 23 -105 66 -153 96 -103 64 -89 54 -309 193 -95
60 -263 165 -373 234 -110 69 -229 144 -265 167 -74 47 -445 280 -475 298 -11
7 -33 21 -50 32 -16 11 -42 27 -56 35 -14 8 -47 28 -73 44 -66 40 -143 44
-212 11z"/>
</g>
</svg>
